<?xml version="1.0" encoding="UTF-8"?>
<svg id="Capa_2" data-name="Capa 2" xmlns="http://www.w3.org/2000/svg" viewBox="0 0 306.53 264.67">
  <g id="Capa_2-2" data-name="Capa 2">
    <g id="Logo_Negro" data-name="Logo Negro">
      <g id="Logo">
        <path d="M191.61,0c-63.46,0-114.92,51.46-114.92,114.92s51.46,114.92,114.92,114.92,114.92-51.46,114.92-114.92S255.08,0,191.61,0Zm0,172.38c-31.73,0-57.46-25.73-57.46-57.46s25.73-57.46,57.46-57.46,57.46,25.73,57.46,57.46-25.73,57.46-57.46,57.46Z"/>
        <path d="M184.6,241.14c-19.34,14.77-43.48,23.53-69.68,23.53C51.46,264.67,0,213.23,0,149.75,0,94.12,39.53,47.72,92.05,37.1c-16.81,21.48-26.85,48.5-26.85,77.81,0,67.34,52.95,122.56,119.4,126.22Z"/>
      </g>
    </g>
  </g>
</svg>