<svg id="_0501_video_tutorial" xmlns="http://www.w3.org/2000/svg" viewBox="0 0 500 500" data-imageid="video-tutorial-81" imageName="Tutorial en vídeo" class="illustrations_image" style="width: 188px;"><defs><style>.cls-1_video-tutorial-81{fill:#fff;}.cls-2_video-tutorial-81{fill:#f4a28c;}.cls-3_video-tutorial-81{opacity:.46;}.cls-3_video-tutorial-81,.cls-4_video-tutorial-81,.cls-5_video-tutorial-81,.cls-6_video-tutorial-81,.cls-7_video-tutorial-81{fill:none;}.cls-8_video-tutorial-81{fill:#a5a5a5;}.cls-9_video-tutorial-81{fill:#ce8172;}.cls-10_video-tutorial-81{fill:#e6e6e6;}.cls-4_video-tutorial-81{opacity:.08;}.cls-5_video-tutorial-81{opacity:.31;}.cls-6_video-tutorial-81{opacity:.3;}.cls-11_video-tutorial-81{fill:#24285b;}.cls-12_video-tutorial-81{fill:#000001;}.cls-13_video-tutorial-81{fill:#ffd200;}.cls-7_video-tutorial-81{opacity:.1;}.cls-14_video-tutorial-81{fill:#68e1fd;}</style></defs><g id="bg_video-tutorial-81" class="cls-6_video-tutorial-81"><path class="cls-10_video-tutorial-81" d="m376.4,66.47c47.63,25.13,85.45,93.06,96.47,176.97,9.29,70.71-2.42,157.01-79.24,195.05-78.4,38.83-299.39,52.36-342.61-63.1C7.8,259.92,13.81,113.51,97.25,63.91c58.49-34.77,186.14-46.52,279.16,2.56Z"/></g><g id="video_in_tab_video-tutorial-81"><path class="cls-2_video-tutorial-81" d="m466.34,334.64s-17.04-80.19-59.92-80.19c-42.88,0-65.7,126.05,38.62,139.76l21.3-59.57Z"/><g class="cls-7_video-tutorial-81"><path class="cls-12_video-tutorial-81" d="m466.34,334.64s-17.04-80.19-59.92-80.19c-42.88,0-65.7,126.05,38.62,139.76l21.3-59.57Z"/></g><path class="cls-2_video-tutorial-81" d="m34.09,334.64s17.04-80.19,59.92-80.19,65.7,126.05-38.62,139.76l-21.3-59.57Z"/><g class="cls-7_video-tutorial-81"><path class="cls-12_video-tutorial-81" d="m34.09,334.64s17.04-80.19,59.92-80.19,65.7,126.05-38.62,139.76l-21.3-59.57Z"/></g><rect class="cls-14_video-tutorial-81 targetColor" x="71.62" y="122.92" width="368.31" height="236.64" style="fill: rgb(255, 150, 105);"/><g class="cls-3_video-tutorial-81"><rect class="cls-1_video-tutorial-81" x="71.61" y="122.93" width="368.31" height="236.64"/></g><rect class="cls-1_video-tutorial-81" x="101.55" y="144.04" width="308.43" height="190.6"/><rect class="cls-8_video-tutorial-81" x="326.02" y="165.83" width="69.17" height="44.26"/><rect class="cls-8_video-tutorial-81" x="326.02" y="217.37" width="69.17" height="44.26"/><rect class="cls-8_video-tutorial-81" x="326.02" y="268.92" width="69.17" height="44.26"/><rect class="cls-13_video-tutorial-81" x="115.19" y="164.82" width="192.79" height="147.61"/><g class="cls-7_video-tutorial-81"><path class="cls-12_video-tutorial-81" d="m132.46,306.07c-7.03,16.25-28.37,26.14-28.69,47.48-.04,1.98-.05,4-.07,6.02h-32.09v-9.04l49.59-71.68s18.26,10.95,11.26,27.22Z"/></g><path class="cls-2_video-tutorial-81" d="m67.69,304.86s33.1-33.85,47.4-30.85c11.79,2.48,11.81,25.96-13.89,45.51-10.55,8.02-17.19,20.04-18.08,33.26-.73,10.93-4.33,23.92-15.43,33.75-23.32,20.65-40.63,2.66-38.37-25.21,2.26-27.87,3.76-36.14,38.37-56.46Z"/><polygon class="cls-14_video-tutorial-81 targetColor" points="84.02 462.88 89.45 392.08 26.26 372.93 8.31 462.88 84.02 462.88" style="fill: rgb(255, 150, 105);"/><g class="cls-7_video-tutorial-81"><polygon class="cls-12_video-tutorial-81" points="84.02 462.88 89.45 392.08 59.28 382.94 51.03 462.88 84.02 462.88"/></g><path class="cls-2_video-tutorial-81" d="m432.74,304.86s-33.1-33.85-47.4-30.85c-11.79,2.48-11.81,25.96,13.89,45.51,10.55,8.02,17.19,20.04,18.08,33.26.73,10.93,4.33,23.92,15.43,33.75,23.32,20.65,40.63,2.66,38.37-25.21-2.26-27.87-3.76-36.14-38.37-56.46Z"/><polygon class="cls-14_video-tutorial-81 targetColor" points="491.69 462.88 474.17 372.93 410.98 392.08 415.98 462.88 491.69 462.88" style="fill: rgb(255, 150, 105);"/><g class="cls-7_video-tutorial-81"><polygon class="cls-12_video-tutorial-81" points="448.97 462.88 441.14 382.94 410.98 392.08 415.98 462.88 448.97 462.88"/></g><g class="cls-7_video-tutorial-81"><circle class="cls-12_video-tutorial-81" cx="85.75" cy="272.54" r="5"/></g><g class="cls-7_video-tutorial-81"><rect class="cls-12_video-tutorial-81" x="59.87" y="229.09" width="52.84" height="4.54" rx="1.18" ry="1.18" transform="translate(-145.07 317.65) rotate(-90)"/></g><circle class="cls-11_video-tutorial-81" cx="426.67" cy="241.24" r="7.4"/><path class="cls-2_video-tutorial-81" d="m226.65,195.25s22.13,9.66,39.07,34.71,61.14,16.72,69.25-21.73c0,0,3.32-18.04,9.21-17.31s0,13.62,0,13.62c0,0,8.1.37,7.37,6.63-.74,6.26-10.68,12.16-10.68,12.16,0,0-17.31,76.61-101.66,30.2l-12.55-58.28Z"/><path class="cls-11_video-tutorial-81" d="m214.84,165.92s12.32,20.58-1.8,25.88c-14.12,5.29-13.51-31.86-13.51-31.86l15.31,5.98Z"/><path class="cls-14_video-tutorial-81 targetColor" d="m184.02,186.59s-39.93,18.17-39.45,46.86c.49,28.69,30.68,78.98,30.68,78.98h64.27l.02-33.27c0-10.26,2.28-20.38,6.61-29.68,6.54-14.03,10.09-40-33.78-62.88h-28.36Z" style="fill: rgb(255, 150, 105);"/><path class="cls-1_video-tutorial-81" d="m191.63,191.49s15.99,11.14,20.75-4.9h-14.76s-5.98,4.9-5.98,4.9Z"/><path class="cls-2_video-tutorial-81" d="m211.08,150.94s3.48,7.38,4.07,12.92c.24,2.25-1.42,4.3-3.67,4.5-2.8.26-6.65-.2-8.99-3.93l-4.76-5.83s-2.85-3.76.31-8.46,11.14-3.8,13.03.8Z"/><polygon class="cls-2_video-tutorial-81" points="199.53 159.93 197.62 186.58 212.38 186.59 207.96 167.68 199.53 159.93"/><path class="cls-2_video-tutorial-81" d="m213.04,155.7l3.22,2.16c.8.53.77,1.71-.06,2.21l-2.72,1.63-.44-5.99Z"/><g class="cls-5_video-tutorial-81"><path class="cls-9_video-tutorial-81" d="m208.08,168.22s-3.12-.53-4.81-2.3c0,0-.96,5.77,6.08,7.72l-1.27-5.42Z"/></g><path class="cls-11_video-tutorial-81" d="m205.69,154.89l-3.44,1.18s3.75,14.7-1.21,27.49c-3.14,8.08-13.29,10.75-20.26,5.59l-3.02-2.23c-3.57-2.64-3.25-8.04.58-10.3,5.59-3.31,11.4-9.21,10.33-19.24-1.26-11.81,9.44-18.94,17.16-17.03,7.57,1.88,7.44,12.72-.14,14.54Z"/><path class="cls-2_video-tutorial-81" d="m204.35,159.6s-1.15-2.92-3.27-1.88-.5,5.28,2.66,4.56l.62-2.69Z"/><rect class="cls-13_video-tutorial-81" x="215.09" y="250.71" width="17.11" height="25.29"/><g class="cls-4_video-tutorial-81"><path class="cls-12_video-tutorial-81" d="m181.16,208.73s20.81,17.55,8.48,37.99c-12.33,20.44-8.55,41.65,14.7,36.85l23.25-4.8h0s11.08,18.93-9.9,22.31l2.99,11.35h-45.43l-5.11-12.02-8.85-14.88-20.72-17.07,40.59-59.73Z"/></g><path class="cls-2_video-tutorial-81" d="m182.52,214.21c-.9-12.99-16.12-19.44-26.08-11.05-8.46,7.13-17.3,17.71-20.74,32.32-7.37,31.31-10.25,58.57,8.87,65.2,19.12,6.63,70.61-13.26,70.61-13.26,0,0,15.91,0,17.02-11.42,1.11-11.42-14.92-7.11-19.16,3.32,0,0-62.24,18.42-54.14-11.42,6.28-23.12,25.13-31.97,23.62-53.68Z"/><rect class="cls-14_video-tutorial-81 targetColor" x="329.07" y="217.8" width="16.58" height="6.63" transform="translate(103.23 -107.35) rotate(21.28)" style="fill: rgb(255, 150, 105);"/><path class="cls-11_video-tutorial-81" d="m202.24,156.07l15.65-3.65s-4.86-16.57-18.37-11.82l2.72,15.47Z"/><rect class="cls-11_video-tutorial-81" x="115.19" y="297.14" width="192.79" height="15.29"/><g class="cls-3_video-tutorial-81"><rect class="cls-1_video-tutorial-81" x="125.05" y="303.77" width="173.06" height="2.03"/></g><circle class="cls-13_video-tutorial-81" cx="164.97" cy="304.78" r="5.87"/></g></svg>